<mxfile host="app.diagrams.net" modified="2023-05-24T02:40:47.932Z" agent="Mozilla/5.0 (X11; Linux x86_64) AppleWebKit/537.36 (KHTML, like Gecko) Chrome/107.0.0.0 Safari/537.36" etag="e1oXlhgr9Xd-vi2pxLRE" version="21.3.2" type="github">
  <diagram name="第 1 页" id="fWx9ujVjWq1F_lEmzrDk">
    <mxGraphModel dx="1434" dy="715" grid="1" gridSize="10" guides="1" tooltips="1" connect="1" arrows="1" fold="1" page="1" pageScale="1" pageWidth="827" pageHeight="1169" math="0" shadow="0">
      <root>
        <mxCell id="0" />
        <mxCell id="1" parent="0" />
        <mxCell id="iaZIWw1a8rxf-XdZS27P-14" style="edgeStyle=orthogonalEdgeStyle;rounded=0;orthogonalLoop=1;jettySize=auto;html=1;exitX=0.5;exitY=1;exitDx=0;exitDy=0;entryX=0.5;entryY=0;entryDx=0;entryDy=0;" edge="1" parent="1" source="iaZIWw1a8rxf-XdZS27P-2" target="iaZIWw1a8rxf-XdZS27P-3">
          <mxGeometry relative="1" as="geometry" />
        </mxCell>
        <mxCell id="iaZIWw1a8rxf-XdZS27P-2" value="开始" style="ellipse;whiteSpace=wrap;html=1;fillColor=#ffe6cc;strokeColor=#d79b00;" vertex="1" parent="1">
          <mxGeometry x="190" y="40" width="120" height="60" as="geometry" />
        </mxCell>
        <mxCell id="iaZIWw1a8rxf-XdZS27P-16" style="edgeStyle=orthogonalEdgeStyle;rounded=0;orthogonalLoop=1;jettySize=auto;html=1;exitX=0.5;exitY=1;exitDx=0;exitDy=0;entryX=0.5;entryY=0;entryDx=0;entryDy=0;" edge="1" parent="1" source="iaZIWw1a8rxf-XdZS27P-3" target="iaZIWw1a8rxf-XdZS27P-4">
          <mxGeometry relative="1" as="geometry" />
        </mxCell>
        <mxCell id="iaZIWw1a8rxf-XdZS27P-3" value="获取control和data压缩文件" style="rounded=0;whiteSpace=wrap;html=1;fillColor=#ffe6cc;strokeColor=#d79b00;" vertex="1" parent="1">
          <mxGeometry x="190" y="120" width="120" height="60" as="geometry" />
        </mxCell>
        <mxCell id="iaZIWw1a8rxf-XdZS27P-17" style="edgeStyle=orthogonalEdgeStyle;rounded=0;orthogonalLoop=1;jettySize=auto;html=1;exitX=0.5;exitY=1;exitDx=0;exitDy=0;entryX=0.5;entryY=0;entryDx=0;entryDy=0;" edge="1" parent="1" source="iaZIWw1a8rxf-XdZS27P-4" target="iaZIWw1a8rxf-XdZS27P-5">
          <mxGeometry relative="1" as="geometry" />
        </mxCell>
        <mxCell id="iaZIWw1a8rxf-XdZS27P-4" value="获取签名文件" style="rounded=0;whiteSpace=wrap;html=1;fillColor=#ffe6cc;strokeColor=#d79b00;" vertex="1" parent="1">
          <mxGeometry x="190" y="200" width="120" height="60" as="geometry" />
        </mxCell>
        <mxCell id="iaZIWw1a8rxf-XdZS27P-18" style="edgeStyle=orthogonalEdgeStyle;rounded=0;orthogonalLoop=1;jettySize=auto;html=1;exitX=1;exitY=0.5;exitDx=0;exitDy=0;entryX=0.5;entryY=0;entryDx=0;entryDy=0;" edge="1" parent="1" source="iaZIWw1a8rxf-XdZS27P-5" target="iaZIWw1a8rxf-XdZS27P-6">
          <mxGeometry relative="1" as="geometry" />
        </mxCell>
        <mxCell id="iaZIWw1a8rxf-XdZS27P-22" value="存在" style="edgeLabel;html=1;align=center;verticalAlign=middle;resizable=0;points=[];" vertex="1" connectable="0" parent="iaZIWw1a8rxf-XdZS27P-18">
          <mxGeometry x="0.2946" relative="1" as="geometry">
            <mxPoint y="11" as="offset" />
          </mxGeometry>
        </mxCell>
        <mxCell id="iaZIWw1a8rxf-XdZS27P-19" style="edgeStyle=orthogonalEdgeStyle;rounded=0;orthogonalLoop=1;jettySize=auto;html=1;exitX=0;exitY=0.5;exitDx=0;exitDy=0;entryX=0.5;entryY=0;entryDx=0;entryDy=0;" edge="1" parent="1" source="iaZIWw1a8rxf-XdZS27P-5" target="iaZIWw1a8rxf-XdZS27P-7">
          <mxGeometry relative="1" as="geometry" />
        </mxCell>
        <mxCell id="iaZIWw1a8rxf-XdZS27P-21" value="不存在" style="edgeLabel;html=1;align=center;verticalAlign=middle;resizable=0;points=[];" vertex="1" connectable="0" parent="iaZIWw1a8rxf-XdZS27P-19">
          <mxGeometry x="0.1302" y="2" relative="1" as="geometry">
            <mxPoint as="offset" />
          </mxGeometry>
        </mxCell>
        <mxCell id="iaZIWw1a8rxf-XdZS27P-5" value="是否存在签名文件" style="rhombus;whiteSpace=wrap;html=1;fillColor=#ffe6cc;strokeColor=#d79b00;" vertex="1" parent="1">
          <mxGeometry x="186.25" y="280" width="127.5" height="80" as="geometry" />
        </mxCell>
        <mxCell id="iaZIWw1a8rxf-XdZS27P-20" style="edgeStyle=orthogonalEdgeStyle;rounded=0;orthogonalLoop=1;jettySize=auto;html=1;exitX=0.5;exitY=1;exitDx=0;exitDy=0;entryX=0.5;entryY=0;entryDx=0;entryDy=0;" edge="1" parent="1" source="iaZIWw1a8rxf-XdZS27P-6" target="iaZIWw1a8rxf-XdZS27P-8">
          <mxGeometry relative="1" as="geometry" />
        </mxCell>
        <mxCell id="iaZIWw1a8rxf-XdZS27P-6" value="将签名文件内容转换成PKCS7结构体形式" style="rounded=0;whiteSpace=wrap;html=1;fillColor=#ffe6cc;strokeColor=#d79b00;" vertex="1" parent="1">
          <mxGeometry x="320" y="370" width="120" height="60" as="geometry" />
        </mxCell>
        <mxCell id="iaZIWw1a8rxf-XdZS27P-23" style="edgeStyle=orthogonalEdgeStyle;rounded=0;orthogonalLoop=1;jettySize=auto;html=1;exitX=0.5;exitY=1;exitDx=0;exitDy=0;entryX=0;entryY=0.5;entryDx=0;entryDy=0;" edge="1" parent="1" source="iaZIWw1a8rxf-XdZS27P-7" target="iaZIWw1a8rxf-XdZS27P-9">
          <mxGeometry relative="1" as="geometry">
            <mxPoint x="130" y="570" as="targetPoint" />
          </mxGeometry>
        </mxCell>
        <mxCell id="iaZIWw1a8rxf-XdZS27P-7" value="PKCS7签名模块创建PKCS7结构体并签名" style="rounded=0;whiteSpace=wrap;html=1;fillColor=#ffe6cc;strokeColor=#d79b00;" vertex="1" parent="1">
          <mxGeometry x="70" y="450" width="120" height="60" as="geometry" />
        </mxCell>
        <mxCell id="iaZIWw1a8rxf-XdZS27P-24" style="edgeStyle=orthogonalEdgeStyle;rounded=0;orthogonalLoop=1;jettySize=auto;html=1;exitX=0.5;exitY=1;exitDx=0;exitDy=0;entryX=1;entryY=0.5;entryDx=0;entryDy=0;" edge="1" parent="1" source="iaZIWw1a8rxf-XdZS27P-8" target="iaZIWw1a8rxf-XdZS27P-9">
          <mxGeometry relative="1" as="geometry" />
        </mxCell>
        <mxCell id="iaZIWw1a8rxf-XdZS27P-8" value="PKCS7签名模块完成签名并更新PKCS7结构体" style="rounded=0;whiteSpace=wrap;html=1;fillColor=#ffe6cc;strokeColor=#d79b00;" vertex="1" parent="1">
          <mxGeometry x="320" y="450" width="120" height="60" as="geometry" />
        </mxCell>
        <mxCell id="iaZIWw1a8rxf-XdZS27P-25" style="edgeStyle=orthogonalEdgeStyle;rounded=0;orthogonalLoop=1;jettySize=auto;html=1;exitX=0.5;exitY=1;exitDx=0;exitDy=0;entryX=0.5;entryY=0;entryDx=0;entryDy=0;" edge="1" parent="1" source="iaZIWw1a8rxf-XdZS27P-9" target="iaZIWw1a8rxf-XdZS27P-10">
          <mxGeometry relative="1" as="geometry" />
        </mxCell>
        <mxCell id="iaZIWw1a8rxf-XdZS27P-9" value="PKCS7结构体转换为PEM格式文件" style="rounded=0;whiteSpace=wrap;html=1;fillColor=#ffe6cc;strokeColor=#d79b00;" vertex="1" parent="1">
          <mxGeometry x="200" y="540" width="120" height="60" as="geometry" />
        </mxCell>
        <mxCell id="iaZIWw1a8rxf-XdZS27P-26" style="edgeStyle=orthogonalEdgeStyle;rounded=0;orthogonalLoop=1;jettySize=auto;html=1;exitX=0.5;exitY=1;exitDx=0;exitDy=0;entryX=0.5;entryY=0;entryDx=0;entryDy=0;" edge="1" parent="1" source="iaZIWw1a8rxf-XdZS27P-10" target="iaZIWw1a8rxf-XdZS27P-12">
          <mxGeometry relative="1" as="geometry" />
        </mxCell>
        <mxCell id="iaZIWw1a8rxf-XdZS27P-10" value="将转换后PEM格式文件归档到deb文件中" style="rounded=0;whiteSpace=wrap;html=1;fillColor=#ffe6cc;strokeColor=#d79b00;" vertex="1" parent="1">
          <mxGeometry x="200" y="620" width="120" height="60" as="geometry" />
        </mxCell>
        <mxCell id="iaZIWw1a8rxf-XdZS27P-12" value="结束" style="ellipse;whiteSpace=wrap;html=1;fillColor=#ffe6cc;strokeColor=#d79b00;" vertex="1" parent="1">
          <mxGeometry x="200" y="700" width="120" height="60" as="geometry" />
        </mxCell>
        <mxCell id="iaZIWw1a8rxf-XdZS27P-15" style="edgeStyle=orthogonalEdgeStyle;rounded=0;orthogonalLoop=1;jettySize=auto;html=1;exitX=0.81;exitY=0.5;exitDx=0;exitDy=0;entryX=0;entryY=0.5;entryDx=0;entryDy=0;exitPerimeter=0;" edge="1" parent="1" source="iaZIWw1a8rxf-XdZS27P-13" target="iaZIWw1a8rxf-XdZS27P-3">
          <mxGeometry relative="1" as="geometry" />
        </mxCell>
        <mxCell id="iaZIWw1a8rxf-XdZS27P-13" value="deb文件" style="shape=dataStorage;whiteSpace=wrap;html=1;fixedSize=1;fillColor=#ffe6cc;strokeColor=#d79b00;" vertex="1" parent="1">
          <mxGeometry x="30" y="120" width="100" height="60" as="geometry" />
        </mxCell>
      </root>
    </mxGraphModel>
  </diagram>
</mxfile>
